<svg xmlns="http://www.w3.org/2000/svg" width="33" height="33" viewBox="0 0 33 33">
  <g id="Icon_feather-copy" data-name="Icon feather-copy" transform="translate(1.5 1.5)">
    <path id="Caminho_58" data-name="Caminho 58" d="M30,13.5H16.5a3,3,0,0,0-3,3V30a3,3,0,0,0,3,3H30a3,3,0,0,0,3-3V16.5A3,3,0,0,0,30,13.5Z" transform="translate(-13.5 -3)" fill="none" stroke="#000" stroke-linecap="round" stroke-linejoin="round" stroke-width="3"/>
    <path id="Caminho_59" data-name="Caminho 59" d="M18,22.5h1.5a3,3,0,0,0,3-3V6a3,3,0,0,0-3-3H6A3,3,0,0,0,3,6V7.5" transform="translate(7.5 -3)" fill="none" stroke="#000" stroke-linecap="round" stroke-linejoin="round" stroke-width="3"/>
  </g>
</svg>
